# xmcd CD database generated by RipIT
#
# Track frame offsets:
# 150
# 21991
# 40621
# 63510
# 81645
# 88726
# 109168
# 132073
# 152820
# 178856
# 199560
# 217363
# 239100
# 250884
# 271916
# 292790
# 312717
#
# Disc length: 4522 seconds
#
# Revision: 1
# Processed by: cddbd v1.5.2PL0 Copyright (c) Steve Scherf et al.
# Submitted via: RipIT 3.9.0 www.suwald.com/ripit/ripit.html on 2010-11-16 at 22:58
#
DISCID=0411a811
DTITLE=Rufus Beck - Armistead Maupin - Stadtgeschichten CD6
DYEAR=2001
DGENRE=Lesung
TTITLE0=67 Stadtgeschichten CD6
TTITLE1=68 Stadtgeschichten CD6
TTITLE2=69 Stadtgeschichten CD6
TTITLE3=70 Stadtgeschichten CD6
TTITLE4=71 Stadtgeschichten CD6
TTITLE5=72 Stadtgeschichten CD6
TTITLE6=73 Stadtgeschichten CD6
TTITLE7=74 Stadtgeschichten CD6
TTITLE8=75 Stadtgeschichten CD6
TTITLE9=76 Stadtgeschichten CD6
TTITLE10=77 Stadtgeschichten CD6
TTITLE11=78 Stadtgeschichten CD6
TTITLE12=79 Stadtgeschichten CD6
TTITLE13=80 Stadtgeschichten CD6
TTITLE14=81 Stadtgeschichten CD6
TTITLE15=82 Stadtgeschichten CD6
TTITLE16=83 Stadtgeschichten CD6
EXTD=YEAR: 2001\n
EXTT0=
EXTT1=
EXTT2=
EXTT3=
EXTT4=
EXTT5=
EXTT6=
EXTT7=
EXTT8=
EXTT9=
EXTT10=
EXTT11=
EXTT12=
EXTT13=
EXTT14=
EXTT15=
EXTT16=
PLAYORDER=
